<svg width="40" height="40" viewBox="0 0 40 40" fill="none" xmlns="http://www.w3.org/2000/svg">
<path opacity="0.25" fill-rule="evenodd" clip-rule="evenodd" d="M20.078 38.6923C30.5417 38.6923 39.0242 30.2546 39.0242 19.8461C39.0242 9.43766 30.5417 0.999939 20.078 0.999939C9.61434 0.999939 1.13184 9.43766 1.13184 19.8461C1.13184 30.2546 9.61434 38.6923 20.078 38.6923Z" stroke="black" stroke-width="1.5"/>
<path d="M21.8031 15.0222H23.5444C23.7046 15.0222 23.8346 14.9003 23.8346 14.7502V13.118C23.8346 12.9678 23.7046 12.8459 23.5444 12.8459H21.8031C20.0433 12.8459 18.6108 14.1881 18.6108 15.8383V17.7425H16.5793C16.4191 17.7425 16.2891 17.8643 16.2891 18.0145V19.6467C16.2891 19.7968 16.4191 19.9187 16.5793 19.9187H18.6108V25.6313C18.6108 25.7815 18.7408 25.9034 18.901 25.9034H20.6423C20.8025 25.9034 20.9325 25.7815 20.9325 25.6313V19.9187H22.964C23.0888 19.9187 23.1996 19.8436 23.2397 19.7326L23.8201 18.1005C23.8497 18.0178 23.8346 17.9264 23.7801 17.8551C23.7249 17.7844 23.6379 17.7425 23.5444 17.7425H20.9325V15.8383C20.9325 15.3883 21.3231 15.0222 21.8031 15.0222Z" fill="black"/>
</svg>
