<svg width="40" height="40" viewBox="0 0 40 40" fill="none" xmlns="http://www.w3.org/2000/svg">
<path opacity="0.25" fill-rule="evenodd" clip-rule="evenodd" d="M19.9462 38.6924C30.4099 38.6924 38.8924 30.2546 38.8924 19.8462C38.8924 9.43772 30.4099 1 19.9462 1C9.4825 1 1 9.43772 1 19.8462C1 30.2546 9.4825 38.6924 19.9462 38.6924Z" stroke="black" stroke-width="1.5"/>
<path d="M15.5978 16.0415C16.4849 16.0415 17.204 15.3262 17.204 14.4438C17.204 13.5614 16.4849 12.8461 15.5978 12.8461C14.7108 12.8461 13.9917 13.5614 13.9917 14.4438C13.9917 15.3262 14.7108 16.0415 15.5978 16.0415Z" fill="black"/>
<path d="M16.9363 17.1088H14.2594C14.1116 17.1088 13.9917 17.2281 13.9917 17.375V25.3635C13.9917 25.5104 14.1116 25.6297 14.2594 25.6297H16.9363C17.0841 25.6297 17.204 25.5104 17.204 25.3635V17.375C17.204 17.2281 17.0841 17.1088 16.9363 17.1088Z" fill="black"/>
<path d="M24.9135 16.6658C23.7694 16.2759 22.3383 16.6184 21.4801 17.2324C21.4507 17.1179 21.3457 17.0327 21.221 17.0327H18.5441C18.3963 17.0327 18.2764 17.152 18.2764 17.299V25.2874C18.2764 25.4344 18.3963 25.5537 18.5441 25.5537H21.221C21.3687 25.5537 21.4887 25.4344 21.4887 25.2874V19.5464C21.9213 19.1757 22.4786 19.0575 22.9347 19.2503C23.377 19.4362 23.6302 19.8899 23.6302 20.4943V25.2874C23.6302 25.4344 23.7501 25.5537 23.8979 25.5537H26.5748C26.7226 25.5537 26.8425 25.4344 26.8425 25.2874V19.9581C26.812 17.7698 25.7771 16.9598 24.9135 16.6658Z" fill="black"/>
</svg>
