<svg width="19" height="21" viewBox="0 0 19 21" fill="none" xmlns="http://www.w3.org/2000/svg">
<path d="M7.39944 19.01C7.39944 20.11 8.33889 21 9.5 21C10.6611 21 11.6006 20.11 11.6006 19.01H7.39944ZM16.7622 14.82V9C16.7622 5.75 14.3872 3.03 11.1783 2.31V1.59C11.1783 0.71 10.4289 0 9.5 0C8.57111 0 7.82167 0.71 7.82167 1.59V2.31C6.23171 2.66651 4.81533 3.52105 3.8019 4.73522C2.78848 5.94939 2.23735 7.45211 2.23778 9V14.82L0 16.94V18H19V16.94L16.7622 14.82ZM13.7222 11.01H10.5556V14.01H8.44444V11.01H5.27778V9H8.44444V6H10.5556V9H13.7222V11.01Z" fill="black"/>
</svg>
