<svg width="40" height="40" viewBox="0 0 40 40" fill="none" xmlns="http://www.w3.org/2000/svg">
<path opacity="0.25" fill-rule="evenodd" clip-rule="evenodd" d="M20.2099 38.6923C30.6736 38.6923 39.1561 30.2546 39.1561 19.8461C39.1561 9.43766 30.6736 0.999939 20.2099 0.999939C9.74617 0.999939 1.26367 9.43766 1.26367 19.8461C1.26367 30.2546 9.74617 38.6923 20.2099 38.6923Z" stroke="black" stroke-width="1.5"/>
<path d="M26.4029 16.362C26.315 16.2631 26.1732 16.2383 26.0569 16.2992C25.9846 16.3371 25.8487 16.3868 25.6873 16.436C25.8909 16.1589 26.0546 15.8488 26.1269 15.57C26.1582 15.4499 26.1125 15.3232 26.013 15.2516C25.9135 15.1806 25.781 15.1806 25.6815 15.2516C25.5247 15.3635 24.7681 15.6996 24.2896 15.8086C23.2084 14.8396 21.9502 14.739 20.6422 15.5203C19.5789 16.1554 19.3475 17.4469 19.3927 18.2341C16.9589 17.9944 15.4462 16.6792 14.5946 15.5907C14.535 15.5144 14.439 15.4741 14.3487 15.4801C14.2539 15.4872 14.1683 15.541 14.1197 15.6245C13.717 16.3199 13.6054 17.0888 13.798 17.8482C13.9033 18.2625 14.0873 18.6277 14.3007 18.9237C14.1983 18.8722 14.0994 18.8076 14.0063 18.7307C13.9207 18.6585 13.8009 18.6449 13.6997 18.6928C13.599 18.7419 13.5348 18.8461 13.5348 18.9603C13.5348 20.2643 14.332 21.1343 15.0765 21.5889C14.9562 21.5741 14.8306 21.5469 14.7039 21.5072C14.5952 21.4735 14.4772 21.5072 14.402 21.5948C14.3268 21.6818 14.3088 21.8061 14.3557 21.9121C14.7739 22.8585 15.5665 23.5096 16.547 23.7458C15.6909 24.2601 14.5449 24.5122 13.4955 24.3885C13.3595 24.369 13.2299 24.4572 13.1871 24.591C13.1443 24.7247 13.2004 24.8715 13.3202 24.9402C14.9122 25.8546 16.3515 26.1814 17.5953 26.1814C19.4054 26.1814 20.8025 25.49 21.6529 24.9118C23.9454 23.3551 25.3743 20.5602 25.1753 18.0595C25.5427 17.7819 26.0922 17.2693 26.433 16.7183C26.5035 16.607 26.4908 16.4602 26.4029 16.362Z" fill="black"/>
</svg>
